<mxfile host="app.diagrams.net" agent="Mozilla/5.0 (Windows NT 10.0; Win64; x64) AppleWebKit/537.36 (KHTML, like Gecko) Chrome/134.0.0.0 Safari/537.36 Edg/134.0.0.0" version="26.2.5">
  <diagram name="Page-1" id="MgzorA2moqm_CeeAu_sn">
    <mxGraphModel dx="1420" dy="760" grid="1" gridSize="10" guides="1" tooltips="1" connect="1" arrows="1" fold="1" page="1" pageScale="1" pageWidth="827" pageHeight="1169" math="0" shadow="0">
      <root>
        <mxCell id="0" />
        <mxCell id="1" parent="0" />
        <mxCell id="V28VGYGWBruspyK0fXsI-22" style="edgeStyle=orthogonalEdgeStyle;rounded=0;orthogonalLoop=1;jettySize=auto;html=1;exitX=1;exitY=0.5;exitDx=0;exitDy=0;entryX=0;entryY=0.5;entryDx=0;entryDy=0;" parent="1" source="V28VGYGWBruspyK0fXsI-3" target="V28VGYGWBruspyK0fXsI-8" edge="1">
          <mxGeometry relative="1" as="geometry" />
        </mxCell>
        <mxCell id="V28VGYGWBruspyK0fXsI-3" value="&lt;font style=&quot;font-size: 18px;&quot;&gt;&lt;b&gt;Front End&lt;/b&gt;&lt;/font&gt;" style="rounded=0;whiteSpace=wrap;html=1;verticalAlign=top;fillColor=#d5e8d4;strokeColor=default;" parent="1" vertex="1">
          <mxGeometry x="160" y="60" width="150" height="170" as="geometry" />
        </mxCell>
        <mxCell id="V28VGYGWBruspyK0fXsI-1" value="&lt;font style=&quot;font-size: 16px;&quot;&gt;GraphBuilder&lt;/font&gt;" style="rounded=0;whiteSpace=wrap;html=1;fillColor=#fad7ac;strokeColor=default;" parent="1" vertex="1">
          <mxGeometry x="180" y="110" width="110" height="40" as="geometry" />
        </mxCell>
        <mxCell id="V28VGYGWBruspyK0fXsI-2" value="&lt;font style=&quot;font-size: 16px;&quot;&gt;Truffle&lt;/font&gt;" style="rounded=0;whiteSpace=wrap;html=1;fillColor=#fff2cc;strokeColor=#d6b656;" parent="1" vertex="1">
          <mxGeometry x="180" y="170" width="110" height="40" as="geometry" />
        </mxCell>
        <mxCell id="V28VGYGWBruspyK0fXsI-19" style="edgeStyle=orthogonalEdgeStyle;rounded=0;orthogonalLoop=1;jettySize=auto;html=1;exitX=1;exitY=0.5;exitDx=0;exitDy=0;entryX=0;entryY=0.5;entryDx=0;entryDy=0;" parent="1" source="V28VGYGWBruspyK0fXsI-5" target="V28VGYGWBruspyK0fXsI-1" edge="1">
          <mxGeometry relative="1" as="geometry" />
        </mxCell>
        <mxCell id="V28VGYGWBruspyK0fXsI-5" value="&lt;span style=&quot;text-wrap-mode: nowrap;&quot;&gt;&lt;font style=&quot;font-size: 16px;&quot;&gt;JavaByteCode&lt;/font&gt;&lt;/span&gt;" style="shape=parallelogram;perimeter=parallelogramPerimeter;whiteSpace=wrap;html=1;fixedSize=1;fillColor=#fad7ac;strokeColor=default;" parent="1" vertex="1">
          <mxGeometry x="10" y="115" width="140" height="30" as="geometry" />
        </mxCell>
        <mxCell id="V28VGYGWBruspyK0fXsI-21" style="edgeStyle=orthogonalEdgeStyle;rounded=0;orthogonalLoop=1;jettySize=auto;html=1;exitX=1;exitY=0.5;exitDx=0;exitDy=0;entryX=0;entryY=0.5;entryDx=0;entryDy=0;" parent="1" source="V28VGYGWBruspyK0fXsI-6" target="V28VGYGWBruspyK0fXsI-2" edge="1">
          <mxGeometry relative="1" as="geometry" />
        </mxCell>
        <mxCell id="V28VGYGWBruspyK0fXsI-6" value="&lt;span style=&quot;text-wrap-mode: nowrap;&quot;&gt;&lt;font style=&quot;font-size: 16px;&quot;&gt;Truffle AST&lt;/font&gt;&lt;/span&gt;" style="shape=parallelogram;perimeter=parallelogramPerimeter;whiteSpace=wrap;html=1;fixedSize=1;fillColor=#fff2cc;strokeColor=#d6b656;" parent="1" vertex="1">
          <mxGeometry x="10" y="175" width="130" height="30" as="geometry" />
        </mxCell>
        <mxCell id="V28VGYGWBruspyK0fXsI-23" style="edgeStyle=orthogonalEdgeStyle;rounded=0;orthogonalLoop=1;jettySize=auto;html=1;exitX=1;exitY=0.5;exitDx=0;exitDy=0;entryX=0;entryY=0.5;entryDx=0;entryDy=0;" parent="1" source="V28VGYGWBruspyK0fXsI-8" target="V28VGYGWBruspyK0fXsI-9" edge="1">
          <mxGeometry relative="1" as="geometry" />
        </mxCell>
        <mxCell id="V28VGYGWBruspyK0fXsI-8" value="&lt;font style=&quot;font-size: 18px;&quot;&gt;&lt;b&gt;Graal IR&lt;/b&gt;&lt;/font&gt;" style="rounded=0;whiteSpace=wrap;html=1;verticalAlign=top;fillColor=#fff2cc;strokeColor=default;" parent="1" vertex="1">
          <mxGeometry x="340" y="60" width="160" height="170" as="geometry" />
        </mxCell>
        <mxCell id="V28VGYGWBruspyK0fXsI-9" value="&lt;font style=&quot;font-size: 18px;&quot;&gt;&lt;b&gt;BackEnd&lt;/b&gt;&lt;/font&gt;" style="rounded=0;whiteSpace=wrap;html=1;verticalAlign=top;fillColor=#f8cecc;strokeColor=default;" parent="1" vertex="1">
          <mxGeometry x="529" y="60" width="270" height="170" as="geometry" />
        </mxCell>
        <mxCell id="V28VGYGWBruspyK0fXsI-10" value="&lt;font style=&quot;font-size: 16px;&quot;&gt;High Tier&lt;/font&gt;" style="rounded=0;whiteSpace=wrap;html=1;fillColor=#BDD6FC;strokeColor=default;" parent="1" vertex="1">
          <mxGeometry x="370" y="100" width="96" height="30" as="geometry" />
        </mxCell>
        <mxCell id="V28VGYGWBruspyK0fXsI-11" value="&lt;font style=&quot;font-size: 16px;&quot;&gt;Mid Tier&lt;/font&gt;" style="rounded=0;whiteSpace=wrap;html=1;fillColor=#FFE2C6;strokeColor=default;" parent="1" vertex="1">
          <mxGeometry x="371" y="140" width="96" height="30" as="geometry" />
        </mxCell>
        <mxCell id="V28VGYGWBruspyK0fXsI-12" value="&lt;font style=&quot;font-size: 16px;&quot;&gt;Low Tier&lt;/font&gt;" style="rounded=0;whiteSpace=wrap;html=1;fillColor=light-dark(#dabde7, #392f3f);strokeColor=default;" parent="1" vertex="1">
          <mxGeometry x="371" y="180" width="96" height="30" as="geometry" />
        </mxCell>
        <mxCell id="V28VGYGWBruspyK0fXsI-17" style="rounded=0;orthogonalLoop=1;jettySize=auto;html=1;exitX=1;exitY=0.5;exitDx=0;exitDy=0;entryX=0;entryY=0.5;entryDx=0;entryDy=0;" parent="1" source="V28VGYGWBruspyK0fXsI-14" target="V28VGYGWBruspyK0fXsI-15" edge="1">
          <mxGeometry relative="1" as="geometry" />
        </mxCell>
        <mxCell id="V28VGYGWBruspyK0fXsI-18" style="rounded=0;orthogonalLoop=1;jettySize=auto;html=1;exitX=1;exitY=0.5;exitDx=0;exitDy=0;entryX=0;entryY=0.5;entryDx=0;entryDy=0;" parent="1" source="V28VGYGWBruspyK0fXsI-14" target="V28VGYGWBruspyK0fXsI-16" edge="1">
          <mxGeometry relative="1" as="geometry" />
        </mxCell>
        <mxCell id="V28VGYGWBruspyK0fXsI-14" value="&lt;font style=&quot;font-size: 16px;&quot;&gt;HotSpotBackEnd&lt;/font&gt;" style="rounded=0;whiteSpace=wrap;html=1;fillColor=#dae8fc;strokeColor=default;" parent="1" vertex="1">
          <mxGeometry x="539" y="130" width="132" height="40" as="geometry" />
        </mxCell>
        <mxCell id="V28VGYGWBruspyK0fXsI-15" value="AMD64 LIR" style="rounded=0;whiteSpace=wrap;html=1;fillColor=#d5e8d4;strokeColor=default;" parent="1" vertex="1">
          <mxGeometry x="689" y="105" width="90" height="40" as="geometry" />
        </mxCell>
        <mxCell id="V28VGYGWBruspyK0fXsI-16" value="AArch64 LIR" style="rounded=0;whiteSpace=wrap;html=1;fillColor=#fff2cc;strokeColor=default;" parent="1" vertex="1">
          <mxGeometry x="689" y="165" width="90" height="40" as="geometry" />
        </mxCell>
        <mxCell id="V28VGYGWBruspyK0fXsI-24" value="&lt;font style=&quot;font-size: 18px;&quot;&gt;&lt;b&gt;Phase&lt;/b&gt;&lt;/font&gt;" style="rounded=0;whiteSpace=wrap;html=1;verticalAlign=top;fillColor=#f5f5f5;fontColor=#333333;strokeColor=#666666;" parent="1" vertex="1">
          <mxGeometry x="20" y="270" width="801.5" height="150" as="geometry" />
        </mxCell>
        <mxCell id="V28VGYGWBruspyK0fXsI-25" value="&lt;font style=&quot;font-size: 16px;&quot;&gt;&lt;b style=&quot;&quot;&gt;High Tier Phase&lt;/b&gt;&lt;/font&gt;" style="rounded=0;whiteSpace=wrap;html=1;verticalAlign=top;align=left;spacing=5;fillColor=#dae8fc;strokeColor=default;" parent="1" vertex="1">
          <mxGeometry x="39" y="310" width="240" height="90" as="geometry" />
        </mxCell>
        <mxCell id="V28VGYGWBruspyK0fXsI-26" value="&lt;font style=&quot;font-size: 14px;&quot;&gt;Phase1&lt;/font&gt;" style="rounded=1;whiteSpace=wrap;html=1;fillColor=#BDD6FC;strokeColor=default;" parent="1" vertex="1">
          <mxGeometry x="59" y="350" width="70" height="40" as="geometry" />
        </mxCell>
        <mxCell id="V28VGYGWBruspyK0fXsI-27" value="&lt;font style=&quot;font-size: 14px;&quot;&gt;Phase2&lt;/font&gt;" style="rounded=1;whiteSpace=wrap;html=1;fillColor=#BDD6FC;strokeColor=default;" parent="1" vertex="1">
          <mxGeometry x="149" y="350" width="70" height="40" as="geometry" />
        </mxCell>
        <mxCell id="V28VGYGWBruspyK0fXsI-29" value="&lt;font style=&quot;font-size: 24px;&quot;&gt;&lt;b style=&quot;&quot;&gt;...&lt;/b&gt;&lt;/font&gt;" style="text;html=1;align=center;verticalAlign=middle;resizable=0;points=[];autosize=1;strokeColor=none;fillColor=none;" parent="1" vertex="1">
          <mxGeometry x="219" y="350" width="40" height="40" as="geometry" />
        </mxCell>
        <mxCell id="V28VGYGWBruspyK0fXsI-30" value="&lt;font style=&quot;font-size: 16px;&quot;&gt;&lt;b style=&quot;&quot;&gt;Mid Tier Phase&lt;/b&gt;&lt;/font&gt;" style="rounded=0;whiteSpace=wrap;html=1;verticalAlign=top;align=left;spacing=5;fillColor=#fff2cc;strokeColor=default;" parent="1" vertex="1">
          <mxGeometry x="300" y="310" width="240" height="90" as="geometry" />
        </mxCell>
        <mxCell id="V28VGYGWBruspyK0fXsI-31" value="&lt;span style=&quot;font-size: 14px;&quot;&gt;Phase1&lt;/span&gt;" style="rounded=1;whiteSpace=wrap;html=1;fillColor=#FFE2C6;strokeColor=default;" parent="1" vertex="1">
          <mxGeometry x="320" y="350" width="70" height="40" as="geometry" />
        </mxCell>
        <mxCell id="V28VGYGWBruspyK0fXsI-32" value="&lt;span style=&quot;font-size: 14px;&quot;&gt;Phase2&lt;/span&gt;" style="rounded=1;whiteSpace=wrap;html=1;fillColor=#FFE2C6;strokeColor=default;" parent="1" vertex="1">
          <mxGeometry x="410" y="350" width="70" height="40" as="geometry" />
        </mxCell>
        <mxCell id="V28VGYGWBruspyK0fXsI-33" value="&lt;font style=&quot;font-size: 24px;&quot;&gt;&lt;b style=&quot;&quot;&gt;...&lt;/b&gt;&lt;/font&gt;" style="text;html=1;align=center;verticalAlign=middle;resizable=0;points=[];autosize=1;strokeColor=none;fillColor=none;" parent="1" vertex="1">
          <mxGeometry x="480" y="350" width="40" height="40" as="geometry" />
        </mxCell>
        <mxCell id="V28VGYGWBruspyK0fXsI-34" value="&lt;font style=&quot;font-size: 16px;&quot;&gt;&lt;b style=&quot;&quot;&gt;Low Tier Phase&lt;/b&gt;&lt;/font&gt;" style="rounded=0;whiteSpace=wrap;html=1;verticalAlign=top;align=left;spacing=5;fillColor=#ECDEF2;strokeColor=default;" parent="1" vertex="1">
          <mxGeometry x="564" y="310" width="240" height="90" as="geometry" />
        </mxCell>
        <mxCell id="V28VGYGWBruspyK0fXsI-35" value="&lt;span style=&quot;font-size: 14px;&quot;&gt;Phase1&lt;/span&gt;" style="rounded=1;whiteSpace=wrap;html=1;fillColor=#DABDE7;strokeColor=default;" parent="1" vertex="1">
          <mxGeometry x="584" y="350" width="70" height="40" as="geometry" />
        </mxCell>
        <mxCell id="V28VGYGWBruspyK0fXsI-36" value="&lt;span style=&quot;font-size: 14px;&quot;&gt;Phase2&lt;/span&gt;" style="rounded=1;whiteSpace=wrap;html=1;fillColor=#DABDE7;strokeColor=default;" parent="1" vertex="1">
          <mxGeometry x="674" y="350" width="70" height="40" as="geometry" />
        </mxCell>
        <mxCell id="V28VGYGWBruspyK0fXsI-37" value="&lt;font style=&quot;font-size: 24px;&quot;&gt;&lt;b style=&quot;&quot;&gt;...&lt;/b&gt;&lt;/font&gt;" style="text;html=1;align=center;verticalAlign=middle;resizable=0;points=[];autosize=1;strokeColor=none;fillColor=none;" parent="1" vertex="1">
          <mxGeometry x="744" y="350" width="40" height="40" as="geometry" />
        </mxCell>
        <mxCell id="V28VGYGWBruspyK0fXsI-38" value="" style="shape=flexArrow;endArrow=classic;html=1;rounded=0;entryX=0.5;entryY=1;entryDx=0;entryDy=0;exitX=0.5;exitY=0;exitDx=0;exitDy=0;endWidth=10.37037037037037;endSize=5.362962962962963;" parent="1" source="V28VGYGWBruspyK0fXsI-24" target="V28VGYGWBruspyK0fXsI-8" edge="1">
          <mxGeometry width="50" height="50" relative="1" as="geometry">
            <mxPoint x="410" y="290" as="sourcePoint" />
            <mxPoint x="460" y="240" as="targetPoint" />
          </mxGeometry>
        </mxCell>
      </root>
    </mxGraphModel>
  </diagram>
</mxfile>
